# This file uses centimeters as units for non-parametric coordinates.

mtllib mushroom.mtl
g default
v -0.402035 -1.715282 0.402436
v 0.402048 -1.715282 0.402436
v -0.360451 2.186358 0.372946
v 0.372701 2.186358 0.360539
v -0.372858 2.186358 -0.360205
v 0.358793 2.184462 -0.372980
v -0.402035 -1.715282 -0.401647
v 0.402120 -1.715486 -0.401720
v -0.500000 4.074919 0.500000
v 0.500000 4.074919 0.500000
v 0.500000 4.074919 -0.500000
v -0.500000 4.074919 -0.500000
v 2.051544 1.907765 2.051725
v -2.051544 1.907765 2.051725
v -2.051544 1.907765 -2.051364
v 2.051363 1.907640 -2.051183
v 1.893459 3.131220 1.893459
v -1.893459 3.131220 1.893459
v -1.893459 3.131220 -1.893459
v 1.813299 3.080306 -1.813299
v 0.913408 3.896707 0.913408
v -0.913408 3.896707 0.913408
v -0.913408 3.896707 -0.913408
v 0.913408 3.896707 -0.913408
v 1.469264 2.415234 1.469435
v -1.469264 2.415234 1.469435
v -1.469264 2.415234 -1.469093
v 1.344132 2.362389 -1.343917
v -1.797117 1.857180 1.797416
v -1.797117 1.857180 -1.796817
v 1.731438 1.851727 -1.731106
v 1.797117 1.857180 1.797416
v 1.283633 -0.224440 0.162869
v -0.162055 -0.224440 1.286039
v -1.284961 -0.224441 -0.159308
v 0.152675 -0.213472 -1.270728
v 0.012534 4.074919 0.500000
v 0.012534 4.074919 -0.500000
v 0.022898 3.896707 -0.913408
v 0.052382 3.255736 -2.089502
v 0.068875 1.902366 -2.747203
v 0.058033 1.837294 -2.314546
v 0.039517 2.447246 -1.576147
v 0.005551 2.194930 -0.487302
v -0.688575 -0.225960 -0.945419
v 0.013661 -1.727487 -0.543686
v 0.013671 -1.728578 0.544692
v 0.733595 -0.225976 0.913366
v 0.018509 2.198135 0.488263
v 0.039762 2.454644 1.586295
v 0.059300 1.845072 2.365807
v 0.070208 1.909887 2.800792
v 0.052382 3.255736 2.089502
v 0.022898 3.896707 0.913408
v -0.500000 4.074920 0.013203
v -0.913408 3.896707 0.024119
v -2.089502 3.255736 0.055173
v -2.800596 1.909887 0.074145
v -2.365722 1.845218 0.062806
v -1.586254 2.454818 0.042065
v -0.488138 2.198135 0.019399
v -0.913030 -0.225974 0.735900
v -0.544362 -1.728578 0.014681
v 0.012257 -1.759122 0.013077
v 0.544022 -1.727487 0.014676
v 0.948187 -0.225974 -0.686714
v 0.488100 2.197250 0.006454
v 1.581312 2.450475 0.041948
v 2.335937 1.838825 0.062055
v 2.773226 1.904168 0.073451
v 2.089502 3.255736 0.055173
v 0.913408 3.896707 0.024119
v 0.500000 4.074920 0.013203
v 0.012534 4.074920 0.013203
v -1.054585 0.722472 0.178115
v -0.498777 0.726476 0.765698
v 0.174228 0.722473 1.054380
v 0.761466 0.726474 0.498243
v 1.050493 0.722473 -0.174433
v 0.533005 0.726095 -0.736297
v -0.176307 0.728071 -1.042846
v -0.739198 0.725105 -0.532596
vt 0.189829 0.682905
vt 0.253865 0.682076
vt 0.305011 0.776036
vt 0.241950 0.776132
vt 0.118886 0.776132
vt 0.055082 0.776037
vt 0.066954 0.682905
vt 0.313811 0.682905
vt 0.373675 0.682136
vt 0.423918 0.776036
vt 0.365139 0.776132
vt 0.129858 0.682076
vt 0.181643 0.776036
vt 0.264705 0.835346
vt 0.329837 0.835596
vt 0.254882 0.927625
vt 0.191156 0.926908
vt 0.221916 0.222968
vt 0.271355 0.222968
vt 0.271355 0.270143
vt 0.221916 0.270143
vt 0.072254 0.072591
vt 0.276918 0.000000
vt 0.275198 0.068930
vt 0.087503 0.087929
vt 0.000000 0.264237
vt 0.068592 0.266075
vt 0.276789 0.537651
vt 0.072254 0.470218
vt 0.087503 0.454916
vt 0.275198 0.473914
vt 0.468038 0.072591
vt 0.537651 0.264304
vt 0.471699 0.266075
vt 0.452789 0.087929
vt 0.206326 0.835596
vt 0.130873 0.927625
vt 0.068276 0.926908
vt 0.079627 0.835511
vt 0.141524 0.835346
vt 0.387946 0.835346
vt 0.315135 0.926908
vt 0.437986 0.926751
vt 0.559522 0.463198
vt 0.613907 0.308293
vt 0.593328 0.464045
vt 0.613892 0.628880
vt 0.272354 0.182905
vt 0.182038 0.182905
vt 0.182038 0.269085
vt 0.182038 0.359940
vt 0.272354 0.359940
vt 0.358253 0.269085
vt 0.358253 0.182905
vt 0.221916 0.319877
vt 0.271355 0.319877
vt 0.318376 0.270143
vt 0.318376 0.222968
vt 0.358253 0.359940
vt 0.318376 0.319877
vt 0.445057 0.447147
vt 0.468020 0.470200
vt 0.779918 0.251889
vt 0.638916 0.333291
vt 0.651024 0.465492
vt 0.736103 0.468146
vt 0.633782 0.609000
vt 0.779972 0.687409
vt 0.934494 0.308279
vt 0.779028 0.286058
vt 0.789496 0.853188
vt 0.830028 0.853305
vt 0.830131 0.814593
vt 0.799860 0.824952
vt 0.868750 0.853188
vt 0.858412 0.824952
vt 0.799860 0.883504
vt 0.812730 0.505836
vt 0.812330 0.467133
vt 0.898126 0.465473
vt 0.888995 0.583383
vt 0.811447 0.430053
vt 0.888995 0.353776
vt 0.959035 0.463946
vt 0.914623 0.609000
vt 0.775695 0.506721
vt 0.777466 0.592524
vt 0.774683 0.430441
vt 0.777457 0.345021
vt 0.914623 0.328159
vt 0.993023 0.463094
vt 0.934494 0.628880
vt 0.779086 0.653429
vt 0.736946 0.507119
vt 0.659389 0.583383
vt 0.735625 0.431490
vt 0.669170 0.363554
vt 0.495278 0.682136
vt 0.558052 0.682905
vt 0.609984 0.776132
vt 0.559373 0.926908
vt 0.496333 0.927425
vt 0.570725 0.835511
vt 0.632622 0.835346
vt 0.510263 0.835696
vt 0.436467 0.682890
vt 0.448677 0.835573
vt 0.374732 0.927570
vt 0.487984 0.776818
vt 0.546180 0.776037
vt 0.830130 0.893847
vt 0.858417 0.883510
vn 0.152209 -0.422577 0.893455
vn 0.340871 -0.419004 0.841572
vn 0.573206 -0.132303 0.808660
vn 0.309616 -0.208148 0.927800
vn 0.000000 1.000000 0.000001
vn 0.000000 1.000000 0.000001
vn 0.000000 1.000000 -0.000000
vn 0.000000 1.000000 0.000000
vn -0.782014 -0.023880 -0.622803
vn -0.566345 -0.134304 -0.813152
vn -0.335908 -0.415948 -0.845076
vn -0.630547 -0.370355 -0.682091
vn -0.052459 -0.998623 -0.000867
vn 0.000342 -1.000000 -0.000543
vn 0.000145 -0.998456 0.055554
vn -0.053030 -0.997031 0.055834
vn 0.894241 -0.426714 -0.135087
vn 0.839259 -0.419969 -0.345355
vn 0.807900 -0.136916 -0.573194
vn 0.932455 -0.211970 -0.292569
vn -0.841574 -0.419233 0.340584
vn -0.668779 -0.373409 0.642885
vn -0.609510 -0.022935 0.792446
vn -0.808528 -0.133355 0.573148
vn -0.000081 -0.976411 0.215923
vn 0.000614 -0.976601 0.215057
vn 0.001438 -0.935948 -0.352135
vn 0.121116 -0.851058 -0.510911
vn 0.214000 -0.976832 0.002026
vn 0.211260 -0.977403 0.007317
vn -0.358178 -0.933392 0.022092
vn -0.514343 -0.849016 -0.120928
vn -0.008403 -0.977466 -0.210924
vn -0.005220 -0.977370 -0.211471
vn 0.108975 -0.845532 0.522686
vn -0.020380 -0.932200 0.361368
vn -0.215163 -0.976578 0.000613
vn -0.214263 -0.976775 0.001267
vn 0.501951 -0.855534 -0.126918
vn 0.352138 -0.935947 0.001510
vn -0.237726 0.120850 0.963785
vn 0.001217 0.093589 0.995610
vn -0.000728 0.571466 0.820625
vn -0.192370 0.484804 0.853205
vn -0.995622 0.093462 0.001299
vn -0.960301 0.118112 0.252729
vn -0.848622 0.488141 0.203861
vn -0.820673 0.571398 -0.000779
vn 0.011983 0.078266 -0.996861
vn -0.225319 0.107233 -0.968366
vn -0.184054 0.472983 -0.861633
vn 0.011669 0.567135 -0.823542
vn 0.962941 0.110586 0.245998
vn 0.996147 0.087190 -0.009453
vn 0.820195 0.571937 -0.012963
vn 0.853272 0.481898 0.199254
vn -0.000888 0.863490 0.504365
vn -0.067940 0.854408 0.515141
vn -0.512366 0.855773 0.071647
vn -0.504368 0.863489 -0.000935
vn -0.067940 0.854408 -0.515141
vn 0.012087 0.858927 -0.511955
vn 0.513110 0.858203 -0.014334
vn 0.512366 0.855773 0.071646
vn 0.000000 0.918309 0.395865
vn 0.000000 0.918309 0.395865
vn -0.395865 0.918309 0.000000
vn -0.395865 0.918309 -0.000000
vn 0.000000 0.918308 -0.395866
vn 0.000000 0.918308 -0.395866
vn 0.395866 0.918309 0.000000
vn 0.395866 0.918308 0.000000
vn -0.001074 -0.930216 -0.367011
vn 0.060625 -0.939732 -0.336494
vn 0.338034 -0.938878 -0.065121
vn 0.367054 -0.930199 -0.001138
vn 0.051595 -0.939073 0.339823
vn -0.013147 -0.937695 0.347210
vn -0.339816 -0.940433 0.010567
vn -0.339890 -0.938629 -0.058738
vn 0.463829 0.264418 0.845545
vn 0.671196 0.280628 0.686108
vn 0.520502 0.337538 0.784312
vn 0.381342 0.365921 0.848929
vn -0.685970 0.280544 0.671372
vn -0.537592 0.272224 0.798053
vn -0.601003 0.260249 0.755689
vn -0.784124 0.339006 0.519832
vn -0.745546 0.259338 -0.613925
vn -0.519156 0.337011 -0.785430
vn -0.670255 0.279335 -0.687553
vn -0.790173 0.269056 -0.550669
vn 0.852042 0.266669 -0.450457
vn 0.684478 0.278692 -0.673662
vn 0.784008 0.338556 -0.520299
vn 0.852690 0.370358 -0.368450
vn 0.000000 1.000000 0.000001
vn 0.000000 1.000000 0.000000
vn 0.104360 0.842290 -0.528826
vn 0.000000 0.918309 -0.395865
vn 0.222454 0.494759 -0.840076
vn 0.268816 0.111751 -0.956687
vn -0.078243 -0.955854 0.283235
vn -0.161639 -0.870198 0.465434
vn -0.012258 -0.977569 -0.210259
vn -0.366177 0.368940 -0.854282
vn -0.446457 0.267264 -0.853959
vn -0.285657 -0.205433 -0.936054
vn -0.125636 -0.420056 -0.898759
vn 0.056355 -0.998411 -0.000730
vn 0.057096 -0.996848 0.055079
vn 0.642683 -0.372708 0.669363
vn 0.792142 -0.021519 0.609958
vn 0.797668 0.272343 0.538103
vn 0.755576 0.258003 0.602112
vn 0.001334 -0.976798 0.214158
vn -0.126597 -0.855467 -0.502146
vn -0.064856 -0.938954 -0.337874
vn 0.252324 0.118369 0.960376
vn 0.203540 0.488117 0.848713
vn 0.071545 0.855736 0.512442
vn 0.000000 0.918309 0.395865
vn -0.515209 0.854375 -0.067849
vn -0.395865 0.918309 -0.000000
vn -0.853367 0.484629 -0.192092
vn -0.963893 0.120733 -0.237347
vn 0.336564 -0.939705 0.060650
vn 0.511059 -0.850973 0.121091
vn -0.216027 -0.976387 -0.000015
vn -0.845922 0.264071 0.463339
vn -0.848865 0.366786 0.380651
vn -0.893609 -0.422447 0.151664
vn -0.927869 -0.208959 0.308861
vn -0.051775 -0.997214 -0.053692
vn 0.000029 -0.998579 -0.053300
vn 0.055505 -0.997065 -0.052722
vn 0.673559 -0.369422 -0.640192
vn 0.613319 -0.025454 -0.789425
vn 0.544772 0.266764 -0.795022
vn 0.609463 0.259441 -0.749163
vn 0.208520 -0.977937 0.012593
vn -0.466087 -0.870699 0.156993
vn -0.281170 -0.956657 0.075828
vn 0.958414 0.119891 -0.258978
vn 0.841298 0.496516 -0.213753
vn 0.532863 0.840402 -0.098904
vn 0.395866 0.918308 0.000000
vn 0.000000 1.000000 -0.000001
vn 0.000000 1.000000 -0.000001
vn 0.000000 1.000000 -0.000001
s 1
g pCube1
usemtl initialShadingGroup
f 1/1/1 47/2/2 48/3/3 34/4/4
s 2
f 9/18/5 37/19/6 74/20/7 55/21/8
s 3
f 35/100/9 45/110/10 46/98/11 7/99/12
s 4
f 63/71/13 64/72/14 47/73/15 1/74/16
s 5
f 2/8/17 65/9/18 66/10/19 33/11/20
s 6
f 63/12/21 1/1/22 34/4/23 62/13/24
s 7
f 3/78/25 49/79/26 50/80/27 26/81/28
s 8
f 4/82/29 67/88/30 68/89/31 25/83/32
s 9
f 44/66/33 5/94/34 27/95/35 43/65/36
s 10
f 61/86/37 3/78/38 26/81/39 60/87/40
s 7
f 14/22/41 52/23/42 53/24/43 18/25/44
s 10
f 58/26/45 14/22/46 18/25/47 57/27/48
s 9
f 41/28/49 15/29/50 19/30/51 40/31/52
s 8
f 13/32/53 70/33/54 71/34/55 17/35/56
s 7
f 18/25/44 53/24/43 54/48/57 22/49/58
s 10
f 57/27/48 18/25/47 22/49/59 56/50/60
s 9
f 40/31/52 19/30/51 23/51/61 39/52/62
s 8
f 17/35/56 71/34/55 72/53/63 21/54/64
s 7
f 22/49/58 54/48/57 37/19/65 9/18/66
s 10
f 56/50/60 22/49/59 9/18/67 55/21/68
s 9
f 39/52/62 23/51/61 12/55/69 38/56/70
s 8
f 21/54/64 72/53/63 73/57/71 10/58/72
s 7
f 26/81/28 50/80/27 51/84/73 29/85/74
s 10
f 60/87/40 26/81/39 29/85/75 59/93/76
s 9
f 43/65/36 27/95/35 30/67/77 42/46/78
s 8
f 25/83/32 68/89/31 69/70/79 32/90/80
s 10
f 59/93/76 29/85/75 14/92/46 58/68/45
s 9
f 42/46/78 30/67/77 15/47/50 41/44/49
s 8
f 32/90/80 69/70/79 70/63/54 13/69/53
s 7
f 29/85/74 51/84/73 52/91/42 14/92/41
s 1
f 77/14/81 78/15/82 49/16/83 3/17/84
s 6
f 76/36/85 77/14/86 3/17/87 61/37/88
s 3
f 5/101/89 44/102/90 82/103/91 75/104/92
s 5
f 79/41/93 80/107/94 67/108/95 4/42/96
s 2
f 37/19/6 10/58/97 73/57/98 74/20/7
s 9
f 24/59/99 39/52/62 38/56/70 11/60/100
f 20/61/101 40/31/52 39/52/62 24/59/99
f 16/62/102 41/28/49 40/31/52 20/61/101
f 31/64/103 42/46/78 41/44/49 16/45/102
f 28/97/104 43/65/36 42/46/78 31/64/103
f 6/96/105 44/66/33 43/65/36 28/97/104
s 3
f 82/103/91 44/102/90 6/43/106 81/105/107
f 46/98/11 45/110/10 36/109/108 8/106/109
s 4
f 47/73/15 64/72/14 65/75/110 2/76/111
s 1
f 48/3/3 47/2/2 2/8/112 33/11/113
f 49/16/83 78/15/82 79/41/114 4/42/115
s 7
f 50/80/27 49/79/26 4/82/116 25/83/117
f 51/84/73 50/80/27 25/83/117 32/90/118
f 52/91/42 51/84/73 32/90/118 13/69/119
f 53/24/43 52/23/42 13/32/119 17/35/120
f 54/48/57 53/24/43 17/35/120 21/54/121
f 37/19/65 54/48/57 21/54/121 10/58/122
s 10
f 23/51/123 56/50/60 55/21/68 12/55/124
f 19/30/125 57/27/48 56/50/60 23/51/123
f 15/29/126 58/26/45 57/27/48 19/30/125
f 30/67/127 59/93/76 58/68/45 15/47/126
f 27/95/128 60/87/40 59/93/76 30/67/127
f 5/94/129 61/86/37 60/87/40 27/95/128
s 6
f 75/40/130 76/36/85 61/37/88 5/38/131
f 7/7/132 63/12/21 62/13/24 35/5/133
s 4
f 7/77/134 46/111/135 64/72/14 63/71/13
f 65/75/110 64/72/14 46/111/135 8/112/136
s 5
f 66/10/19 65/9/18 8/106/137 36/109/138
f 67/108/95 80/107/94 81/105/139 6/43/140
s 8
f 68/89/31 67/88/30 6/96/141 28/97/142
f 69/70/79 68/89/31 28/97/142 31/64/143
f 70/63/54 69/70/79 31/64/143 16/45/144
f 71/34/55 70/33/54 16/62/144 20/61/145
f 72/53/63 71/34/55 20/61/145 24/59/146
f 73/57/71 72/53/63 24/59/146 11/60/147
s 2
f 74/20/7 73/57/98 11/60/148 38/56/149
f 55/21/8 74/20/7 38/56/149 12/55/150
s 6
f 35/5/133 62/13/24 76/36/85 75/40/130
f 62/13/24 34/4/23 77/14/86 76/36/85
s 1
f 34/4/4 48/3/3 78/15/82 77/14/81
f 79/41/114 78/15/82 48/3/3 33/11/113
s 5
f 33/11/20 66/10/19 80/107/94 79/41/93
f 81/105/139 80/107/94 66/10/19 36/109/138
s 3
f 45/110/10 82/103/91 81/105/107 36/109/108
f 75/40/92 82/39/91 45/6/10 35/5/9
